<?xml version="1.0" standalone="no"?>
<!DOCTYPE svg PUBLIC "-//W3C//DTD SVG 20010904//EN"
 "http://www.w3.org/TR/2001/REC-SVG-20010904/DTD/svg10.dtd">
<svg version="1.0" xmlns="http://www.w3.org/2000/svg"
 width="1280.000000pt" height="1280.000000pt" viewBox="0 0 1280.000000 1280.000000"
 preserveAspectRatio="xMidYMid meet">
<metadata>
Created by potrace 1.15, written by Peter Selinger 2001-2017
</metadata>
<g transform="translate(0.000000,1280.000000) scale(0.100000,-0.100000)"
fill="#000000" stroke="none">
<path d="M6325 10478 c-44 -4 -144 -15 -222 -23 -747 -81 -1487 -401 -2088
-904 -116 -97 -370 -351 -466 -466 -407 -488 -695 -1063 -824 -1646 -140 -630
-136 -1225 15 -1834 108 -441 281 -833 535 -1220 573 -872 1478 -1482 2503
-1690 164 -33 382 -61 605 -76 196 -13 404 -4 682 31 1132 144 2153 781 2780
1735 255 388 427 781 535 1220 167 680 155 1368 -35 2031 -153 533 -406 1006
-774 1449 -106 129 -366 383 -508 499 -512 418 -1097 696 -1728 821 -155 31
-252 44 -555 74 -120 13 -338 12 -455 -1z"/>
</g>
</svg>
